<svg xmlns="http://www.w3.org/2000/svg" xmlns:xlink="http://www.w3.org/1999/xlink" width="100" zoomAndPan="magnify" viewBox="0 0 75 74.999997" height="100" preserveAspectRatio="xMidYMid meet" version="1.0"><defs><filter x="0%" y="0%" width="100%" height="100%" id="d7963d96bb"><feColorMatrix values="0 0 0 0 1 0 0 0 0 1 0 0 0 0 1 0 0 0 1 0" color-interpolation-filters="sRGB"/></filter><mask id="9145f99b54"><g filter="url(#d7963d96bb)"><rect x="-7.5" width="90" fill="#000000" y="-7.5" height="89.999996" fill-opacity="0.2"/></g></mask><clipPath id="16cd26ad7d"><path d="M 3 0 L 46.921875 0 L 46.921875 22 L 3 22 Z M 3 0 " clip-rule="nonzero"/></clipPath><clipPath id="3fbf136064"><path d="M -1.550781 -15.96875 L 41.558594 -21.800781 L 46.683594 16.101562 L 3.578125 21.933594 Z M -1.550781 -15.96875 " clip-rule="nonzero"/></clipPath><clipPath id="eb07936263"><path d="M 0.261719 -2.589844 L 43.367188 -8.421875 L 46.683594 16.101562 L 3.578125 21.933594 Z M 0.261719 -2.589844 " clip-rule="nonzero"/></clipPath><clipPath id="9a16f34633"><path d="M -1.542969 -15.917969 L 41.5625 -21.75 L 46.691406 16.15625 L 3.585938 21.988281 Z M -1.542969 -15.917969 " clip-rule="nonzero"/></clipPath><clipPath id="29d97030b2"><path d="M 4 0 L 46 0 L 46 21 L 4 21 Z M 4 0 " clip-rule="nonzero"/></clipPath><clipPath id="5bf160e65b"><path d="M -1.550781 -15.96875 L 41.558594 -21.800781 L 46.683594 16.101562 L 3.578125 21.933594 Z M -1.550781 -15.96875 " clip-rule="nonzero"/></clipPath><clipPath id="d59a3b24e3"><path d="M 0.261719 -2.589844 L 43.367188 -8.421875 L 46.683594 16.101562 L 3.578125 21.933594 Z M 0.261719 -2.589844 " clip-rule="nonzero"/></clipPath><clipPath id="4c44663272"><path d="M -1.542969 -15.917969 L 41.5625 -21.75 L 46.691406 16.15625 L 3.585938 21.988281 Z M -1.542969 -15.917969 " clip-rule="nonzero"/></clipPath><clipPath id="0fd8ef345e"><path d="M 19 0 L 27 0 L 27 14 L 19 14 Z M 19 0 " clip-rule="nonzero"/></clipPath><clipPath id="cc56719c7b"><path d="M -1.550781 -15.96875 L 41.558594 -21.800781 L 46.683594 16.101562 L 3.578125 21.933594 Z M -1.550781 -15.96875 " clip-rule="nonzero"/></clipPath><clipPath id="0aa64cd140"><path d="M 0.261719 -2.589844 L 43.367188 -8.421875 L 46.683594 16.101562 L 3.578125 21.933594 Z M 0.261719 -2.589844 " clip-rule="nonzero"/></clipPath><clipPath id="e5e5418668"><path d="M -1.542969 -15.917969 L 41.5625 -21.75 L 46.691406 16.15625 L 3.585938 21.988281 Z M -1.542969 -15.917969 " clip-rule="nonzero"/></clipPath><clipPath id="56e6121488"><rect x="0" width="47" y="0" height="23"/></clipPath><mask id="d8fb20ef37"><g filter="url(#d7963d96bb)"><rect x="-7.5" width="90" fill="#000000" y="-7.5" height="89.999996" fill-opacity="0.2"/></g></mask><clipPath id="ad79222801"><path d="M 5 3 L 47 3 L 47 22 L 5 22 Z M 5 3 " clip-rule="nonzero"/></clipPath><clipPath id="818c854d9a"><path d="M 0.449219 6.03125 L 43.558594 0.199219 L 48.683594 38.101562 L 5.578125 43.933594 Z M 0.449219 6.03125 " clip-rule="nonzero"/></clipPath><clipPath id="2baf644410"><path d="M 0.449219 6.03125 L 43.558594 0.199219 L 46.875 24.726562 L 3.769531 30.558594 Z M 0.449219 6.03125 " clip-rule="nonzero"/></clipPath><clipPath id="d25a9defe2"><path d="M 0.449219 6.03125 L 43.558594 0.199219 L 48.683594 38.101562 L 5.578125 43.933594 Z M 0.449219 6.03125 " clip-rule="nonzero"/></clipPath><clipPath id="c4e96fa00d"><path d="M 6 4 L 47 4 L 47 22 L 6 22 Z M 6 4 " clip-rule="nonzero"/></clipPath><clipPath id="64ac923374"><path d="M 0.449219 6.03125 L 43.558594 0.199219 L 48.683594 38.101562 L 5.578125 43.933594 Z M 0.449219 6.03125 " clip-rule="nonzero"/></clipPath><clipPath id="f2b89f7f85"><path d="M 0.449219 6.03125 L 43.558594 0.199219 L 46.875 24.726562 L 3.769531 30.558594 Z M 0.449219 6.03125 " clip-rule="nonzero"/></clipPath><clipPath id="cf5f291e0a"><path d="M 0.449219 6.03125 L 43.558594 0.199219 L 48.683594 38.101562 L 5.578125 43.933594 Z M 0.449219 6.03125 " clip-rule="nonzero"/></clipPath><clipPath id="28458d40e5"><path d="M 21 14 L 29 14 L 29 22 L 21 22 Z M 21 14 " clip-rule="nonzero"/></clipPath><clipPath id="6cb22449ae"><path d="M 0.449219 6.03125 L 43.558594 0.199219 L 48.683594 38.101562 L 5.578125 43.933594 Z M 0.449219 6.03125 " clip-rule="nonzero"/></clipPath><clipPath id="5b71062d57"><path d="M 0.449219 6.03125 L 43.558594 0.199219 L 46.875 24.726562 L 3.769531 30.558594 Z M 0.449219 6.03125 " clip-rule="nonzero"/></clipPath><clipPath id="0626c1160d"><path d="M 0.449219 6.03125 L 43.558594 0.199219 L 48.683594 38.101562 L 5.578125 43.933594 Z M 0.449219 6.03125 " clip-rule="nonzero"/></clipPath><clipPath id="6ac35dce2b"><rect x="0" width="47" y="0" height="22"/></clipPath><mask id="9b37c24a20"><g filter="url(#d7963d96bb)"><rect x="-7.5" width="90" fill="#000000" y="-7.5" height="89.999996" fill-opacity="0.2"/></g></mask><clipPath id="c9c3f0d10c"><path d="M 0 3 L 24 3 L 24 42.359375 L 0 42.359375 Z M 0 3 " clip-rule="nonzero"/></clipPath><clipPath id="ed1c49bddb"><path d="M -24.050781 6.53125 L 19.058594 0.699219 L 24.183594 38.601562 L -18.921875 44.433594 Z M -24.050781 6.53125 " clip-rule="nonzero"/></clipPath><clipPath id="d3e278aa50"><path d="M -7.699219 4.320312 L 19.058594 0.699219 L 24.183594 38.601562 L -2.570312 42.222656 Z M -7.699219 4.320312 " clip-rule="nonzero"/></clipPath><clipPath id="d2bdc2a8c9"><path d="M -24.007812 6.523438 L 19.101562 0.691406 L 24.230469 38.597656 L -18.878906 44.429688 Z M -24.007812 6.523438 " clip-rule="nonzero"/></clipPath><clipPath id="c51672265a"><path d="M 0 4 L 23 4 L 23 42.359375 L 0 42.359375 Z M 0 4 " clip-rule="nonzero"/></clipPath><clipPath id="bce1bb8fdb"><path d="M -24.050781 6.53125 L 19.058594 0.699219 L 24.183594 38.601562 L -18.921875 44.433594 Z M -24.050781 6.53125 " clip-rule="nonzero"/></clipPath><clipPath id="a4837419dc"><path d="M -7.699219 4.320312 L 19.058594 0.699219 L 24.183594 38.601562 L -2.570312 42.222656 Z M -7.699219 4.320312 " clip-rule="nonzero"/></clipPath><clipPath id="086bb6d1b1"><path d="M -24.007812 6.523438 L 19.101562 0.691406 L 24.230469 38.597656 L -18.878906 44.429688 Z M -24.007812 6.523438 " clip-rule="nonzero"/></clipPath><clipPath id="343882da9e"><path d="M 0 14 L 5 14 L 5 36 L 0 36 Z M 0 14 " clip-rule="nonzero"/></clipPath><clipPath id="3ef7ede4a9"><path d="M -24.050781 6.53125 L 19.058594 0.699219 L 24.183594 38.601562 L -18.921875 44.433594 Z M -24.050781 6.53125 " clip-rule="nonzero"/></clipPath><clipPath id="a7351a73c1"><path d="M -7.699219 4.320312 L 19.058594 0.699219 L 24.183594 38.601562 L -2.570312 42.222656 Z M -7.699219 4.320312 " clip-rule="nonzero"/></clipPath><clipPath id="cb6fa53051"><path d="M -24.007812 6.523438 L 19.101562 0.691406 L 24.230469 38.597656 L -18.878906 44.429688 Z M -24.007812 6.523438 " clip-rule="nonzero"/></clipPath><clipPath id="88e3c3ecf3"><rect x="0" width="25" y="0" height="43"/></clipPath><mask id="26e027288c"><g filter="url(#d7963d96bb)"><rect x="-7.5" width="90" fill="#000000" y="-7.5" height="89.999996" fill-opacity="0.2"/></g></mask><clipPath id="73e3907a26"><path d="M 5 1 L 25 1 L 25 42.519531 L 5 42.519531 Z M 5 1 " clip-rule="nonzero"/></clipPath><clipPath id="95bec910b5"><path d="M 0.949219 4.53125 L 44.058594 -1.300781 L 49.183594 36.601562 L 6.078125 42.433594 Z M 0.949219 4.53125 " clip-rule="nonzero"/></clipPath><clipPath id="84488df28c"><path d="M 0.949219 4.53125 L 27.707031 0.910156 L 32.835938 38.816406 L 6.078125 42.433594 Z M 0.949219 4.53125 " clip-rule="nonzero"/></clipPath><clipPath id="fde7f7d5ab"><path d="M 0.949219 4.53125 L 44.058594 -1.300781 L 49.183594 36.601562 L 6.078125 42.433594 Z M 0.949219 4.53125 " clip-rule="nonzero"/></clipPath><clipPath id="eafc5388bc"><path d="M 6 2 L 25 2 L 25 41 L 6 41 Z M 6 2 " clip-rule="nonzero"/></clipPath><clipPath id="b4eb6f6b13"><path d="M 0.949219 4.53125 L 44.058594 -1.300781 L 49.183594 36.601562 L 6.078125 42.433594 Z M 0.949219 4.53125 " clip-rule="nonzero"/></clipPath><clipPath id="660506eebf"><path d="M 0.949219 4.53125 L 27.707031 0.910156 L 32.835938 38.816406 L 6.078125 42.433594 Z M 0.949219 4.53125 " clip-rule="nonzero"/></clipPath><clipPath id="690ae00d53"><path d="M 0.949219 4.53125 L 44.058594 -1.300781 L 49.183594 36.601562 L 6.078125 42.433594 Z M 0.949219 4.53125 " clip-rule="nonzero"/></clipPath><clipPath id="c1e28873b1"><path d="M 21 12 L 25 12 L 25 34 L 21 34 Z M 21 12 " clip-rule="nonzero"/></clipPath><clipPath id="3fec11a465"><path d="M 0.949219 4.53125 L 44.058594 -1.300781 L 49.183594 36.601562 L 6.078125 42.433594 Z M 0.949219 4.53125 " clip-rule="nonzero"/></clipPath><clipPath id="5c9494413b"><path d="M 0.949219 4.53125 L 27.707031 0.910156 L 32.835938 38.816406 L 6.078125 42.433594 Z M 0.949219 4.53125 " clip-rule="nonzero"/></clipPath><clipPath id="b4486e7cec"><path d="M 0.949219 4.53125 L 44.058594 -1.300781 L 49.183594 36.601562 L 6.078125 42.433594 Z M 0.949219 4.53125 " clip-rule="nonzero"/></clipPath><clipPath id="b8d0d66e86"><rect x="0" width="25" y="0" height="43"/></clipPath></defs><rect x="-7.5" width="90" fill="#ffffff" y="-7.5" height="89.999996" fill-opacity="1"/><rect x="-7.5" width="90" fill="#ffffff" y="-7.5" height="89.999996" fill-opacity="1"/><g mask="url(#9145f99b54)"><g transform="matrix(1, 0, 0, 1, 15, -0.000000000000001893)"><g clip-path="url(#56e6121488)"><g clip-path="url(#16cd26ad7d)"><g clip-path="url(#3fbf136064)"><g clip-path="url(#eb07936263)"><g clip-path="url(#9a16f34633)"><path fill="#f9d100" d="M 20.082031 -18.835938 L 20.167969 -18.765625 L 20.5625 -18.820312 L 20.730469 -18.761719 L 20.808594 -18.773438 L 20.976562 -18.714844 L 21.140625 -18.660156 L 21.476562 -18.542969 L 21.578125 -18.398438 L 21.667969 -18.328125 L 21.832031 -18.273438 L 21.933594 -18.125 L 22.023438 -18.058594 L 22.199219 -17.921875 L 34.042969 -2.570312 L 45.769531 12.695312 L 45.871094 12.84375 L 46.070312 13.136719 L 46.167969 13.28125 L 46.222656 13.675781 L 46.320312 13.820312 L 46.273438 14.066406 L 46.316406 14.382812 L 46.261719 14.550781 L 46.203125 14.71875 L 46.226562 14.875 L 46.15625 14.964844 L 46.089844 15.050781 L 46.03125 15.21875 L 45.964844 15.308594 L 45.894531 15.398438 L 45.828125 15.488281 L 45.769531 15.65625 L 45.703125 15.746094 L 45.558594 15.84375 L 45.410156 15.945312 L 45.265625 16.042969 L 45.195312 16.132812 L 45.050781 16.234375 L 44.894531 16.253906 L 44.746094 16.351562 L 44.433594 16.394531 L 44.289062 16.496094 L 25.132812 19.085938 L 6.042969 21.589844 L 5.492188 21.664062 L 5.324219 21.605469 L 5.167969 21.628906 L 5 21.570312 L 4.914062 21.503906 L 4.578125 21.386719 L 4.410156 21.332031 L 4.230469 21.195312 L 4.144531 21.128906 L 4.042969 20.980469 L 3.953125 20.914062 L 3.855469 20.765625 L 3.765625 20.699219 L 3.675781 20.628906 L 3.65625 20.472656 L 3.566406 20.40625 L 3.542969 20.25 L 3.457031 20.179688 L 3.414062 19.867188 L 3.304688 19.640625 L 3.359375 19.472656 L 3.308594 19.082031 L 3.421875 18.746094 L 3.398438 18.589844 L 3.535156 18.410156 L 10.785156 0.574219 L 18.132812 -17.292969 L 18.191406 -17.460938 L 18.324219 -17.636719 L 18.382812 -17.804688 L 18.449219 -17.894531 L 18.585938 -18.074219 L 18.652344 -18.160156 L 18.800781 -18.261719 L 18.867188 -18.351562 L 19.09375 -18.460938 L 19.238281 -18.5625 L 19.394531 -18.582031 L 19.542969 -18.683594 L 19.933594 -18.734375 L 20.082031 -18.835938 " fill-opacity="1" fill-rule="evenodd"/></g></g></g></g><g clip-path="url(#29d97030b2)"><g clip-path="url(#5bf160e65b)"><g clip-path="url(#d59a3b24e3)"><g clip-path="url(#4c44663272)"><path fill="#1f1a17" d="M 20.398438 -17.675781 L 20.484375 -17.609375 L 20.652344 -17.550781 L 20.820312 -17.496094 L 20.898438 -17.503906 L 21 -17.359375 L 21.085938 -17.292969 L 21.265625 -17.15625 L 44.824219 13.382812 L 44.914062 13.453125 L 45.003906 13.519531 L 45.023438 13.675781 L 45.113281 13.746094 L 45.15625 14.058594 L 45.109375 14.304688 L 45.050781 14.472656 L 44.996094 14.640625 L 44.859375 14.820312 L 44.722656 14.996094 L 44.578125 15.097656 L 44.429688 15.195312 L 44.207031 15.308594 L 5.660156 20.523438 L 5.570312 20.453125 L 5.414062 20.476562 L 5.324219 20.40625 L 5.246094 20.417969 L 5.15625 20.351562 L 4.988281 20.292969 L 4.808594 20.15625 L 4.699219 19.933594 L 4.601562 19.785156 L 4.488281 19.5625 L 4.46875 19.402344 L 4.515625 19.15625 L 4.574219 18.988281 L 4.550781 18.832031 L 4.628906 18.820312 L 19.226562 -16.878906 L 19.214844 -16.957031 L 19.285156 -17.046875 L 19.351562 -17.136719 L 19.488281 -17.316406 L 19.554688 -17.402344 L 19.632812 -17.414062 L 19.703125 -17.503906 L 19.9375 -17.535156 L 20.003906 -17.625 Z M 40.921875 12.871094 L 8.257812 17.292969 L 20.757812 -13.25 L 40.921875 12.871094 " fill-opacity="1" fill-rule="evenodd"/></g></g></g></g><g clip-path="url(#0fd8ef345e)"><g clip-path="url(#cc56719c7b)"><g clip-path="url(#0aa64cd140)"><g clip-path="url(#e5e5418668)"><path fill="#1f1a17" d="M 19.164062 -4.957031 L 19.21875 -5.125 L 19.1875 -5.359375 L 19.246094 -5.527344 L 19.214844 -5.761719 L 19.28125 -5.851562 L 19.269531 -5.929688 L 19.453125 -6.355469 L 19.566406 -6.691406 L 19.847656 -6.96875 L 20.050781 -7.234375 L 20.421875 -7.445312 L 20.714844 -7.644531 L 21.097656 -7.777344 L 21.410156 -7.820312 L 21.8125 -7.792969 L 22.136719 -7.757812 L 22.539062 -7.730469 L 22.808594 -7.527344 L 23.144531 -7.414062 L 23.410156 -7.210938 L 23.6875 -6.925781 L 23.875 -6.714844 L 23.898438 -6.554688 L 23.988281 -6.488281 L 24.085938 -6.339844 L 24.109375 -6.183594 L 24.207031 -6.039062 L 24.261719 -5.644531 L 24.71875 4.828125 L 24.683594 5.152344 L 24.636719 5.398438 L 24.433594 5.667969 L 24.308594 5.921875 L 24.09375 6.113281 L 23.871094 6.222656 L 23.644531 6.332031 L 23.097656 6.40625 L 22.773438 6.371094 L 22.527344 6.324219 L 22.011719 6.074219 L 21.824219 5.859375 L 21.625 5.566406 L 21.503906 5.261719 Z M 23.542969 7.945312 L 24.105469 7.949219 L 24.59375 8.042969 L 25.019531 8.226562 L 25.453125 8.488281 L 25.820312 8.839844 L 26.109375 9.199219 L 26.328125 9.648438 L 26.484375 10.1875 L 26.46875 10.667969 L 26.375 11.160156 L 26.203125 11.664062 L 25.941406 12.101562 L 25.59375 12.46875 L 25.234375 12.757812 L 24.785156 12.976562 L 23.765625 13.113281 L 23.273438 13.019531 L 22.769531 12.847656 L 22.335938 12.589844 L 21.96875 12.238281 L 21.667969 11.796875 L 21.449219 11.347656 L 21.308594 10.328125 L 21.402344 9.835938 L 21.585938 9.410156 L 21.847656 8.976562 L 22.195312 8.609375 L 22.632812 8.308594 L 23.082031 8.089844 L 23.542969 7.945312 " fill-opacity="1" fill-rule="evenodd"/></g></g></g></g></g></g></g><g mask="url(#d8fb20ef37)"><g transform="matrix(1, 0, 0, 1, 13, 53)"><g clip-path="url(#6ac35dce2b)"><g clip-path="url(#ad79222801)"><g clip-path="url(#818c854d9a)"><g clip-path="url(#2baf644410)"><g clip-path="url(#d25a9defe2)"><path fill="#f9d100" d="M 22.074219 3.113281 L 22.164062 3.179688 L 22.554688 3.128906 L 22.722656 3.183594 L 22.800781 3.171875 L 23.136719 3.289062 L 23.304688 3.34375 L 23.46875 3.402344 L 23.570312 3.550781 L 23.660156 3.617188 L 23.828125 3.675781 L 23.925781 3.820312 L 24.015625 3.890625 L 24.191406 4.023438 L 36.035156 19.375 L 47.761719 34.644531 L 47.863281 34.789062 L 48.0625 35.082031 L 48.160156 35.230469 L 48.214844 35.621094 L 48.316406 35.769531 L 48.269531 36.015625 L 48.3125 36.328125 L 48.195312 36.664062 L 48.21875 36.820312 L 48.148438 36.910156 L 48.082031 37 L 48.023438 37.167969 L 47.957031 37.253906 L 47.890625 37.34375 L 47.820312 37.433594 L 47.765625 37.601562 L 47.695312 37.691406 L 47.550781 37.789062 L 47.402344 37.890625 L 47.257812 37.988281 L 47.191406 38.078125 L 47.042969 38.179688 L 46.886719 38.199219 L 46.742188 38.300781 L 46.425781 38.34375 L 46.28125 38.441406 L 27.125 41.035156 L 8.035156 43.535156 L 7.484375 43.609375 L 7.320312 43.554688 L 7.160156 43.574219 L 6.996094 43.515625 L 6.90625 43.449219 L 6.738281 43.390625 L 6.570312 43.335938 L 6.402344 43.277344 L 6.222656 43.140625 L 6.136719 43.074219 L 6.035156 42.925781 L 5.945312 42.859375 L 5.847656 42.714844 L 5.757812 42.644531 L 5.667969 42.578125 L 5.648438 42.421875 L 5.558594 42.351562 L 5.539062 42.195312 L 5.449219 42.128906 L 5.40625 41.8125 L 5.296875 41.589844 L 5.351562 41.421875 L 5.300781 41.027344 L 5.414062 40.691406 L 5.394531 40.535156 L 5.527344 40.355469 L 12.777344 22.523438 L 20.125 4.65625 L 20.183594 4.488281 L 20.320312 4.308594 L 20.375 4.140625 L 20.441406 4.050781 L 20.578125 3.875 L 20.648438 3.785156 L 20.792969 3.683594 L 20.859375 3.597656 L 21.085938 3.484375 L 21.230469 3.386719 L 21.386719 3.363281 L 21.535156 3.265625 L 21.925781 3.210938 L 22.074219 3.113281 " fill-opacity="1" fill-rule="evenodd"/></g></g></g></g><g clip-path="url(#c4e96fa00d)"><g clip-path="url(#64ac923374)"><g clip-path="url(#f2b89f7f85)"><g clip-path="url(#cf5f291e0a)"><path fill="#1f1a17" d="M 22.390625 4.269531 L 22.476562 4.335938 L 22.8125 4.453125 L 22.890625 4.441406 L 22.992188 4.585938 L 23.082031 4.65625 L 23.257812 4.792969 L 46.816406 35.332031 L 46.996094 35.464844 L 47.015625 35.625 L 47.105469 35.691406 L 47.148438 36.003906 L 47.101562 36.25 L 47.046875 36.417969 L 46.988281 36.585938 L 46.714844 36.945312 L 46.570312 37.042969 L 46.425781 37.144531 L 46.199219 37.253906 L 7.652344 42.46875 L 7.5625 42.402344 L 7.40625 42.421875 L 7.316406 42.355469 L 7.238281 42.363281 L 7.148438 42.296875 L 6.980469 42.238281 L 6.804688 42.105469 L 6.691406 41.878906 L 6.59375 41.734375 L 6.484375 41.507812 L 6.460938 41.351562 L 6.507812 41.105469 L 6.566406 40.9375 L 6.542969 40.78125 L 6.621094 40.769531 L 21.21875 5.066406 L 21.207031 4.988281 L 21.277344 4.898438 L 21.34375 4.808594 L 21.480469 4.632812 L 21.546875 4.542969 L 21.625 4.53125 L 21.695312 4.441406 L 21.929688 4.410156 L 21.996094 4.320312 Z M 42.914062 34.820312 L 10.25 39.238281 L 22.75 8.699219 L 42.914062 34.820312 " fill-opacity="1" fill-rule="evenodd"/></g></g></g></g><g clip-path="url(#28458d40e5)"><g clip-path="url(#6cb22449ae)"><g clip-path="url(#5b71062d57)"><g clip-path="url(#0626c1160d)"><path fill="#1f1a17" d="M 21.15625 16.992188 L 21.210938 16.824219 L 21.179688 16.585938 L 21.238281 16.421875 L 21.207031 16.183594 L 21.273438 16.09375 L 21.261719 16.015625 L 21.445312 15.59375 L 21.558594 15.257812 L 21.839844 14.980469 L 22.046875 14.710938 L 22.417969 14.5 L 22.707031 14.300781 L 23.089844 14.171875 L 23.402344 14.128906 L 23.804688 14.152344 L 24.132812 14.1875 L 24.535156 14.214844 L 24.800781 14.417969 L 25.136719 14.535156 L 25.402344 14.738281 L 25.679688 15.019531 L 25.871094 15.234375 L 25.890625 15.390625 L 25.980469 15.457031 L 26.078125 15.605469 L 26.101562 15.761719 L 26.199219 15.910156 L 26.253906 16.300781 L 26.710938 26.773438 L 26.675781 27.101562 L 26.628906 27.347656 L 26.425781 27.613281 L 26.300781 27.871094 L 26.085938 28.058594 L 25.863281 28.167969 L 25.636719 28.28125 L 25.089844 28.355469 L 24.765625 28.316406 L 24.519531 28.273438 L 24.003906 28.019531 L 23.816406 27.808594 L 23.617188 27.515625 L 23.496094 27.210938 Z M 25.535156 29.894531 L 26.097656 29.898438 L 26.589844 29.992188 L 27.011719 30.171875 L 27.445312 30.433594 L 27.8125 30.785156 L 28.101562 31.144531 L 28.324219 31.59375 L 28.476562 32.132812 L 28.460938 32.617188 L 28.367188 33.109375 L 28.195312 33.613281 L 27.9375 34.046875 L 27.585938 34.414062 L 27.226562 34.703125 L 26.777344 34.921875 L 25.757812 35.0625 L 25.265625 34.96875 L 24.761719 34.796875 L 24.328125 34.535156 L 23.960938 34.183594 L 23.660156 33.746094 L 23.441406 33.296875 L 23.304688 32.273438 L 23.394531 31.78125 L 23.578125 31.359375 L 23.839844 30.921875 L 24.1875 30.554688 L 24.628906 30.257812 L 25.078125 30.035156 L 25.535156 29.894531 " fill-opacity="1" fill-rule="evenodd"/></g></g></g></g></g></g></g><g mask="url(#9b37c24a20)"><g transform="matrix(1, 0, 0, 1, 0, 15)"><g clip-path="url(#88e3c3ecf3)"><g clip-path="url(#c9c3f0d10c)"><g clip-path="url(#ed1c49bddb)"><g clip-path="url(#d3e278aa50)"><g clip-path="url(#d2bdc2a8c9)"><path fill="#f9d100" d="M -2.382812 3.605469 L -2.292969 3.675781 L -1.902344 3.621094 L -1.734375 3.679688 L -1.65625 3.667969 L -1.488281 3.726562 L -1.320312 3.78125 L -0.984375 3.898438 L -0.886719 4.042969 L -0.796875 4.113281 L -0.628906 4.167969 L -0.53125 4.316406 L -0.441406 4.382812 L -0.261719 4.519531 L 11.578125 19.871094 L 23.308594 35.136719 L 23.40625 35.285156 L 23.605469 35.578125 L 23.707031 35.722656 L 23.757812 36.117188 L 23.859375 36.261719 L 23.8125 36.507812 L 23.855469 36.824219 L 23.796875 36.988281 L 23.742188 37.15625 L 23.761719 37.316406 L 23.695312 37.402344 L 23.625 37.492188 L 23.570312 37.660156 L 23.5 37.75 L 23.367188 37.929688 L 23.308594 38.097656 L 23.242188 38.183594 L 23.09375 38.285156 L 22.949219 38.382812 L 22.800781 38.484375 L 22.734375 38.574219 L 22.585938 38.671875 L 22.429688 38.695312 L 22.285156 38.792969 L 21.972656 38.835938 L 21.824219 38.9375 L 2.667969 41.527344 L -16.421875 44.03125 L -16.96875 44.105469 L -17.136719 44.046875 L -17.292969 44.070312 L -17.460938 44.011719 L -17.550781 43.945312 L -17.886719 43.828125 L -18.054688 43.773438 L -18.230469 43.636719 L -18.320312 43.566406 L -18.421875 43.421875 L -18.507812 43.351562 L -18.609375 43.207031 L -18.699219 43.140625 L -18.785156 43.070312 L -18.808594 42.914062 L -18.898438 42.847656 L -18.917969 42.6875 L -19.007812 42.621094 L -19.050781 42.308594 L -19.160156 42.082031 L -19.101562 41.914062 L -19.15625 41.523438 L -19.042969 41.1875 L -19.0625 41.03125 L -18.925781 40.851562 L -11.675781 23.015625 L -4.332031 5.148438 L -4.273438 4.980469 L -4.136719 4.804688 L -4.082031 4.636719 L -4.011719 4.546875 L -3.878906 4.367188 L -3.808594 4.277344 L -3.664062 4.179688 L -3.59375 4.089844 L -3.371094 3.980469 L -3.222656 3.878906 L -3.066406 3.859375 L -2.921875 3.757812 L -2.527344 3.707031 L -2.382812 3.605469 " fill-opacity="1" fill-rule="evenodd"/></g></g></g></g><g clip-path="url(#c51672265a)"><g clip-path="url(#bce1bb8fdb)"><g clip-path="url(#a4837419dc)"><g clip-path="url(#086bb6d1b1)"><path fill="#1f1a17" d="M -2.066406 4.761719 L -1.976562 4.832031 L -1.808594 4.886719 L -1.640625 4.945312 L -1.5625 4.933594 L -1.464844 5.082031 L -1.375 5.148438 L -1.195312 5.285156 L 22.363281 35.824219 L 22.449219 35.894531 L 22.539062 35.960938 L 22.5625 36.117188 L 22.648438 36.1875 L 22.691406 36.5 L 22.644531 36.746094 L 22.589844 36.914062 L 22.53125 37.082031 L 22.394531 37.257812 L 22.261719 37.4375 L 22.113281 37.539062 L 21.96875 37.636719 L 21.742188 37.746094 L -16.804688 42.964844 L -16.894531 42.894531 L -17.050781 42.917969 L -17.140625 42.847656 L -17.21875 42.859375 L -17.308594 42.792969 L -17.476562 42.734375 L -17.652344 42.597656 L -17.761719 42.371094 L -17.863281 42.226562 L -17.972656 42 L -17.996094 41.84375 L -17.949219 41.597656 L -17.890625 41.429688 L -17.910156 41.273438 L -17.832031 41.261719 L -3.238281 5.5625 L -3.246094 5.484375 L -3.113281 5.304688 L -2.976562 5.125 L -2.90625 5.035156 L -2.828125 5.027344 L -2.761719 4.9375 L -2.527344 4.90625 L -2.457031 4.816406 Z M 18.460938 35.3125 L -14.207031 39.734375 L -1.707031 9.191406 L 18.460938 35.3125 " fill-opacity="1" fill-rule="evenodd"/></g></g></g></g><g clip-path="url(#343882da9e)"><g clip-path="url(#3ef7ede4a9)"><g clip-path="url(#a7351a73c1)"><g clip-path="url(#cb6fa53051)"><path fill="#1f1a17" d="M -3.300781 17.484375 L -3.242188 17.316406 L -3.273438 17.082031 L -3.21875 16.914062 L -3.25 16.679688 L -3.183594 16.589844 L -3.191406 16.511719 L -3.011719 16.085938 L -2.894531 15.75 L -2.613281 15.472656 L -2.410156 15.207031 L -2.039062 14.996094 L -1.746094 14.796875 L -1.367188 14.664062 L -1.050781 14.621094 L -0.648438 14.648438 L -0.324219 14.683594 L 0.078125 14.707031 L 0.34375 14.914062 L 0.679688 15.027344 L 0.945312 15.230469 L 1.226562 15.511719 L 1.414062 15.726562 L 1.433594 15.886719 L 1.523438 15.953125 L 1.625 16.097656 L 1.644531 16.257812 L 1.746094 16.402344 L 1.796875 16.796875 L 2.257812 27.269531 L 2.21875 27.59375 L 2.171875 27.839844 L 1.96875 28.109375 L 1.84375 28.363281 L 1.632812 28.554688 L 1.40625 28.664062 L 1.183594 28.773438 L 0.632812 28.847656 L 0.308594 28.8125 L 0.0625 28.765625 L -0.449219 28.515625 L -0.640625 28.300781 L -0.839844 28.007812 L -0.960938 27.703125 Z M 1.082031 30.386719 L 1.640625 30.390625 L 2.132812 30.484375 L 2.554688 30.667969 L 2.992188 30.929688 L 3.359375 31.277344 L 3.644531 31.640625 L 3.867188 32.089844 L 4.019531 32.628906 L 4.003906 33.109375 L 3.910156 33.601562 L 3.742188 34.105469 L 3.480469 34.539062 L 3.128906 34.90625 L 2.769531 35.195312 L 2.320312 35.417969 L 1.300781 35.554688 L 0.808594 35.460938 L 0.304688 35.289062 L -0.128906 35.027344 L -0.496094 34.679688 L -0.792969 34.238281 L -1.015625 33.789062 L -1.152344 32.769531 L -1.058594 32.277344 L -0.878906 31.851562 L -0.617188 31.417969 L -0.265625 31.050781 L 0.171875 30.75 L 0.621094 30.53125 L 1.082031 30.386719 " fill-opacity="1" fill-rule="evenodd"/></g></g></g></g></g></g></g><g mask="url(#26e027288c)"><g transform="matrix(1, 0, 0, 1, 50, 17)"><g clip-path="url(#b8d0d66e86)"><g clip-path="url(#73e3907a26)"><g clip-path="url(#95bec910b5)"><g clip-path="url(#84488df28c)"><g clip-path="url(#fde7f7d5ab)"><path fill="#f9d100" d="M 22.574219 1.613281 L 22.664062 1.679688 L 23.054688 1.628906 L 23.222656 1.683594 L 23.300781 1.671875 L 23.636719 1.789062 L 23.804688 1.84375 L 23.96875 1.902344 L 24.070312 2.050781 L 24.160156 2.117188 L 24.328125 2.175781 L 24.425781 2.320312 L 24.515625 2.390625 L 24.691406 2.523438 L 36.535156 17.875 L 48.261719 33.144531 L 48.363281 33.289062 L 48.5625 33.582031 L 48.660156 33.730469 L 48.714844 34.121094 L 48.816406 34.269531 L 48.769531 34.515625 L 48.8125 34.828125 L 48.695312 35.164062 L 48.71875 35.320312 L 48.648438 35.410156 L 48.582031 35.5 L 48.523438 35.667969 L 48.457031 35.753906 L 48.390625 35.84375 L 48.320312 35.933594 L 48.265625 36.101562 L 48.195312 36.191406 L 48.050781 36.289062 L 47.902344 36.390625 L 47.757812 36.488281 L 47.691406 36.578125 L 47.542969 36.679688 L 47.386719 36.699219 L 47.242188 36.800781 L 46.925781 36.84375 L 46.78125 36.941406 L 27.625 39.535156 L 8.535156 42.035156 L 7.984375 42.109375 L 7.820312 42.054688 L 7.660156 42.074219 L 7.496094 42.015625 L 7.40625 41.949219 L 7.238281 41.890625 L 7.070312 41.835938 L 6.902344 41.777344 L 6.722656 41.640625 L 6.636719 41.574219 L 6.535156 41.425781 L 6.445312 41.359375 L 6.347656 41.214844 L 6.257812 41.144531 L 6.167969 41.078125 L 6.148438 40.921875 L 6.058594 40.851562 L 6.039062 40.695312 L 5.949219 40.628906 L 5.90625 40.3125 L 5.796875 40.089844 L 5.851562 39.921875 L 5.800781 39.527344 L 5.914062 39.191406 L 5.894531 39.035156 L 6.027344 38.855469 L 13.277344 21.023438 L 20.625 3.15625 L 20.683594 2.988281 L 20.820312 2.808594 L 20.875 2.640625 L 20.941406 2.550781 L 21.078125 2.375 L 21.148438 2.285156 L 21.292969 2.183594 L 21.359375 2.097656 L 21.585938 1.984375 L 21.730469 1.886719 L 21.886719 1.863281 L 22.035156 1.765625 L 22.425781 1.710938 L 22.574219 1.613281 " fill-opacity="1" fill-rule="evenodd"/></g></g></g></g><g clip-path="url(#eafc5388bc)"><g clip-path="url(#b4eb6f6b13)"><g clip-path="url(#660506eebf)"><g clip-path="url(#690ae00d53)"><path fill="#1f1a17" d="M 22.890625 2.769531 L 22.976562 2.835938 L 23.3125 2.953125 L 23.390625 2.941406 L 23.492188 3.085938 L 23.582031 3.15625 L 23.757812 3.292969 L 47.316406 33.832031 L 47.496094 33.964844 L 47.515625 34.125 L 47.605469 34.191406 L 47.648438 34.503906 L 47.601562 34.75 L 47.546875 34.917969 L 47.488281 35.085938 L 47.214844 35.445312 L 47.070312 35.542969 L 46.925781 35.644531 L 46.699219 35.753906 L 8.152344 40.96875 L 8.0625 40.902344 L 7.90625 40.921875 L 7.816406 40.855469 L 7.738281 40.863281 L 7.648438 40.796875 L 7.480469 40.738281 L 7.304688 40.605469 L 7.191406 40.378906 L 7.09375 40.234375 L 6.984375 40.007812 L 6.960938 39.851562 L 7.007812 39.605469 L 7.066406 39.4375 L 7.042969 39.28125 L 7.121094 39.269531 L 21.71875 3.566406 L 21.707031 3.488281 L 21.777344 3.398438 L 21.84375 3.308594 L 21.980469 3.132812 L 22.046875 3.042969 L 22.125 3.03125 L 22.195312 2.941406 L 22.429688 2.910156 L 22.496094 2.820312 Z M 43.414062 33.320312 L 10.75 37.738281 L 23.25 7.199219 L 43.414062 33.320312 " fill-opacity="1" fill-rule="evenodd"/></g></g></g></g><g clip-path="url(#c1e28873b1)"><g clip-path="url(#3fec11a465)"><g clip-path="url(#5c9494413b)"><g clip-path="url(#b4486e7cec)"><path fill="#1f1a17" d="M 21.65625 15.492188 L 21.710938 15.324219 L 21.679688 15.085938 L 21.738281 14.921875 L 21.707031 14.683594 L 21.773438 14.59375 L 21.761719 14.515625 L 21.945312 14.09375 L 22.058594 13.757812 L 22.339844 13.480469 L 22.546875 13.210938 L 22.917969 13 L 23.207031 12.800781 L 23.589844 12.671875 L 23.902344 12.628906 L 24.304688 12.652344 L 24.632812 12.6875 L 25.035156 12.714844 L 25.300781 12.917969 L 25.636719 13.035156 L 25.902344 13.238281 L 26.179688 13.519531 L 26.371094 13.734375 L 26.390625 13.890625 L 26.480469 13.957031 L 26.578125 14.105469 L 26.601562 14.261719 L 26.699219 14.410156 L 26.753906 14.800781 L 27.210938 25.273438 L 27.175781 25.601562 L 27.128906 25.847656 L 26.925781 26.113281 L 26.800781 26.371094 L 26.585938 26.558594 L 26.363281 26.667969 L 26.136719 26.78125 L 25.589844 26.855469 L 25.265625 26.816406 L 25.019531 26.773438 L 24.503906 26.519531 L 24.316406 26.308594 L 24.117188 26.015625 L 23.996094 25.710938 Z M 26.035156 28.394531 L 26.597656 28.398438 L 27.089844 28.492188 L 27.511719 28.671875 L 27.945312 28.933594 L 28.3125 29.285156 L 28.601562 29.644531 L 28.824219 30.09375 L 28.976562 30.632812 L 28.960938 31.117188 L 28.867188 31.609375 L 28.695312 32.113281 L 28.4375 32.546875 L 28.085938 32.914062 L 27.726562 33.203125 L 27.277344 33.421875 L 26.257812 33.5625 L 25.765625 33.46875 L 25.261719 33.296875 L 24.828125 33.035156 L 24.460938 32.683594 L 24.160156 32.246094 L 23.941406 31.796875 L 23.804688 30.773438 L 23.894531 30.28125 L 24.078125 29.859375 L 24.339844 29.421875 L 24.6875 29.054688 L 25.128906 28.757812 L 25.578125 28.535156 L 26.035156 28.394531 " fill-opacity="1" fill-rule="evenodd"/></g></g></g></g></g></g></g></svg>